<svg xmlns="http://www.w3.org/2000/svg" viewBox="0 0 37.39 21.3"><defs><style>.cls-1{fill:#322a85;}.cls-2{fill:#005fac;}.cls-3{fill:#008ed4;}</style></defs><g id="Livello_2" data-name="Livello 2"><g id="Livello_1-2" data-name="Livello 1"><path class="cls-1" d="M37.39,10.78a17.19,17.19,0,0,1-6.14,7.62,17,17,0,0,1-9.59,2.9,18,18,0,0,0,8.61-6.41,17.36,17.36,0,0,0,2.18-4.07A17.39,17.39,0,0,1,37.39,10.78Z"/><path class="cls-1" d="M27.91,6.83a17.24,17.24,0,0,1,4.7-1.77,16.66,16.66,0,0,1-.91,4.87,17.27,17.27,0,0,0-4.41,1.44l-.05,0Z"/><path class="cls-2" d="M27.72,12.27A16.38,16.38,0,0,1,31.29,11a16.67,16.67,0,0,1-1.83,3.27,17,17,0,0,1-8.21,6.08,18.07,18.07,0,0,0,5.52-7.62C27.08,12.6,27.39,12.43,27.72,12.27Z"/><path class="cls-2" d="M24.05,9.77a16.11,16.11,0,0,1,2.83-2.32,15.92,15.92,0,0,1-.6,3.63c-.09.34-.2.68-.31,1a16.76,16.76,0,0,0-3.14,2.38,17.4,17.4,0,0,0,.49-3.88h0C23.55,10.3,23.79,10,24.05,9.77Z"/><path class="cls-1" d="M26.9,6.26a16.34,16.34,0,0,0-3.56,2.81l-.06.06s0-.07,0-.11a16.89,16.89,0,0,0-.95-4.49,16.61,16.61,0,0,1,3.76-3.22A17.39,17.39,0,0,1,26.9,6.26Z"/><path class="cls-3" d="M25.29,13.72a17.11,17.11,0,0,1-4.49,5.74,17.77,17.77,0,0,0,1.33-2.79h0A16.87,16.87,0,0,1,25.29,13.72Z"/><path class="cls-2" d="M22.28,9.09c0,.38,0,.76,0,1.13a16.84,16.84,0,0,0-2.13,3.31,17.88,17.88,0,0,0-.91-4,8.29,8.29,0,0,1,.36-.89,16,16,0,0,1,1.94-3.22A16.85,16.85,0,0,1,22.28,9.09Z"/><path class="cls-3" d="M22.24,12a16.62,16.62,0,0,1-1,4.14h0a14.68,14.68,0,0,0-1.09,1.48c.06-.55.11-1.13.12-1.76h0A16.06,16.06,0,0,1,22.24,12Z"/><path class="cls-1" d="M21.18,4.32h0a17.73,17.73,0,0,0-2.44,3.9,16.56,16.56,0,0,0-2.41-3.86l1.22-2.62s0,0,0,0a0,0,0,0,1,0,0A14.17,14.17,0,0,1,18.75,0,16.31,16.31,0,0,1,21.18,4.32Z"/><path class="cls-3" d="M18.75,11.22a16.53,16.53,0,0,1,.55,4.44,20.88,20.88,0,0,0-.58,2,16.05,16.05,0,0,0-.54-2A16.1,16.1,0,0,1,18.75,11.22Z"/><path class="cls-2" d="M17.84,8.67c.14.3.26.6.37.9a17.65,17.65,0,0,0-.92,4,16.54,16.54,0,0,0-2.13-3.33c0-.38,0-.76.05-1.16a16.82,16.82,0,0,1,.7-3.65A15.62,15.62,0,0,1,17.84,8.67Z"/><path class="cls-3" d="M15.36,16.66a19.22,19.22,0,0,0,1.32,2.79,17.21,17.21,0,0,1-4.5-5.79,16.9,16.9,0,0,1,3.17,3Z"/><path class="cls-2" d="M16.25,20.41A17.22,17.22,0,0,1,8,14.31a16.08,16.08,0,0,1-1.86-3.38,16.56,16.56,0,0,1,3.55,1.23c.34.17.68.34,1,.53A18.3,18.3,0,0,0,16.25,20.41Z"/><path class="cls-3" d="M17.18,16q0,.89.12,1.68a18.16,18.16,0,0,0-1.07-1.48h0a17.09,17.09,0,0,1-1-4.1,16.79,16.79,0,0,1,1.93,3.86Z"/><path class="cls-1" d="M15.45,21.17a17,17,0,0,1-9.31-2.89A17.25,17.25,0,0,1,0,10.66a17.17,17.17,0,0,1,5,.05,16.89,16.89,0,0,0,2.21,4.18A18,18,0,0,0,15.45,21.17Z"/><path class="cls-1" d="M15.17,4.53A17.05,17.05,0,0,0,14.22,9c0,.05,0,.11,0,.16l-.1-.11a16.65,16.65,0,0,0-3.53-2.78,17.13,17.13,0,0,1,.82-5A16.66,16.66,0,0,1,15.17,4.53Z"/><path class="cls-2" d="M14.65,14.43A16.32,16.32,0,0,0,11.49,12c-.11-.3-.2-.62-.29-.94a15.66,15.66,0,0,1-.6-3.61,16.73,16.73,0,0,1,2.8,2.3,10.59,10.59,0,0,1,.76.86h0A16.82,16.82,0,0,0,14.65,14.43Z"/><path class="cls-1" d="M10.1,11.26A16.79,16.79,0,0,0,5.72,9.83a17,17,0,0,1-.89-4.77,16.59,16.59,0,0,1,4.74,1.8,18.07,18.07,0,0,0,.65,4.46Z"/></g></g></svg>